<svg width="46" height="45" viewBox="0 0 46 45" fill="none" xmlns="http://www.w3.org/2000/svg">
<path d="M16.2398 42.24V35.3601C16.2398 33.6039 17.7572 32.1802 19.629 32.1802H26.4711C27.37 32.1802 28.232 32.5152 28.8676 33.1116C29.5032 33.7079 29.8602 34.5168 29.8602 35.3601V42.24C29.8546 42.9702 30.1597 43.6722 30.708 44.1904C31.2562 44.7086 32.0022 45 32.7804 45H37.4484C39.6286 45.0053 41.7214 44.1964 43.265 42.7518C44.8086 41.3072 45.6761 39.3457 45.6761 37.3001V17.7004C45.676 16.048 44.8954 14.4806 43.5446 13.4205L27.6648 1.52071C24.9025 -0.565736 20.9446 -0.49837 18.2648 1.6807L2.74735 13.4205C1.33265 14.4494 0.487097 16.0214 0.445312 17.7004V37.2801C0.445313 41.5437 4.12896 45 8.67296 45H13.2344C14.8507 45 16.1642 43.7765 16.1759 42.26L16.2398 42.24Z" fill="#361E58"/>
</svg>
